<svg width="28" height="28" viewBox="0 0 28 28" xmlns="http://www.w3.org/2000/svg">
<path fill-rule="evenodd" clip-rule="evenodd" fill="var(--key-color)" d="M1 9.455C1 5.236 4.37 2 8.637 2C10.617 2 12.589 2.763 14.067 4.054C15.548 2.763 17.518 2 19.498 2C23.793 2 27 5.265 27 9.455C27 12.061 25.376 14.835 23.157 17.513C20.903 20.234 17.867 23.05 14.72 25.758C14.5385 25.9143 14.307 26.0002 14.0675 26.0002C13.828 26.0002 13.5965 25.9143 13.415 25.758C10.271 23.053 7.202 20.238 4.915 17.519C2.665 14.845 1 12.068 1 9.455Z"/>
</svg>
